<svg width="97" height="100" viewBox="0 0 97 100" fill="none" xmlns="http://www.w3.org/2000/svg">
<path fill-rule="evenodd" clip-rule="evenodd" d="M63.229 1.61699C57.89 3.57199 50.542 11.014 48.392 16.643C44.363 27.193 48.686 40.224 58.375 46.738C63.141 49.943 63.165 49.987 60.701 50.924C57.04 52.316 49.179 60.327 47.477 64.401C46.665 66.345 46 70.88 46 74.479C46 102.146 82.608 109.897 94.069 84.657C96.353 79.625 96.589 70.345 94.555 65.478C92.492 60.539 87.408 54.535 83.516 52.439L80.176 50.64L84.338 47.954C93.577 41.993 97 35.86 97 25.267C97 20.023 96.457 17.453 94.623 14.026C93.316 11.582 91.679 9.39299 90.984 9.16099C90.148 8.88299 89.996 9.20699 90.533 10.12C90.979 10.879 90.417 10.688 89.284 9.69699C86.168 6.96799 77.506 3.99699 72.739 4.02199C67.87 4.04699 61.908 6.50199 57.328 10.369C53.658 13.467 52 19.389 52 29.401C52 34.292 52.504 36.445 54.25 39.008C56.89 42.885 57.28 43.102 66.718 45.931C72.915 47.789 74.54 47.932 78.218 46.943C83.451 45.537 88.775 40.218 92.351 32.827C94.186 29.032 94.937 28.156 94.963 29.782C95.062 35.947 88.387 44.687 81.327 47.637C77.352 49.297 69.079 49.403 63.925 47.86C55.354 45.292 49.044 35.81 49.044 25.5C49.044 11.245 57.73 2.58499 72.084 2.52999C78.933 2.50299 80.177 2.81599 84.921 5.76299C87.811 7.55799 89.988 8.45799 89.758 7.76299C89.528 7.06799 87.191 5.16799 84.564 3.54099C78.762 -0.0540099 69.96 -0.84801 63.229 1.61699ZM22.414 2.77199C21.267 3.72299 16.378 13.5 11.55 24.5C6.722 35.5 2.148 45.497 1.386 46.715C0.624 47.933 0 49.192 0 49.513C0 49.833 2.761 49.961 6.136 49.798L12.271 49.5L19.305 33.22C23.174 24.266 26.666 17.291 27.066 17.72C27.618 18.314 36.966 39.582 40.704 48.75C41.097 49.712 38.214 50 28.189 50C21.025 50 14.452 50.273 13.582 50.607C12.2 51.137 12 54.242 12 75.107V99H17H22V79.5V60H33.5H45V55V50H49.083C51.329 50 53.017 49.634 52.833 49.187C52.65 48.74 47.775 37.726 42 24.712L31.5 1.04999L28 1.04699C26.075 1.04599 23.561 1.82199 22.414 2.77199ZM40 24.672C45.225 36.573 49.65 46.69 49.833 47.155C50.017 47.62 48.405 48 46.251 48H42.336L38.179 38.322C35.893 33 34.232 28.435 34.488 28.178C34.947 27.72 40.077 38.516 41.438 42.805C42.194 45.185 42.791 45.419 44.824 44.13C46.408 43.126 44.443 38.205 34.665 18.686L28.246 5.87199L26.373 8.28999C25.343 9.61899 20.225 19.092 15 29.34C9.775 39.588 4.953 47.979 4.286 47.986C2.936 48.002 2.557 48.963 14.521 22C18.792 12.375 22.784 4.16899 23.393 3.76499C24.002 3.36099 25.85 3.03099 27.5 3.03199C30.448 3.03299 30.665 3.40799 40 24.672ZM73.269 7.65599C72.592 7.92999 71.242 7.94699 70.269 7.69299C69.296 7.43899 69.85 7.21499 71.5 7.19499C73.15 7.17499 73.946 7.38199 73.269 7.65599ZM61.944 11.7C60.179 13.186 58.137 15.773 57.407 17.45C56.2 20.22 56.075 20.284 56.039 18.15C55.999 15.718 61.827 8.99999 63.977 8.99999C64.624 8.99999 63.709 10.215 61.944 11.7ZM78.316 11.152C87.822 16.166 89.722 29.513 82.025 37.21C78.614 40.622 77.718 41 73.052 41C63.183 41 58 35.847 58 26.034C58 19.311 60.124 14.505 64.19 12.026C67.889 9.76999 74.877 9.33799 78.316 11.152ZM86.886 13.399C88.198 14.555 90.112 17.368 91.139 19.652C92.986 23.757 92.982 23.868 90.846 29.451C89.657 32.557 87.068 36.919 85.093 39.144C81.95 42.684 80.874 43.237 76.5 43.559C72.274 43.871 72.042 43.807 75 43.148C79.721 42.096 82.007 40.517 85.156 36.137C90.42 28.813 89.635 19.406 83.199 12.686C80.963 10.352 80.844 9.99399 82.502 10.585C83.601 10.977 85.574 12.243 86.886 13.399ZM16.548 35.085C13.467 42.095 10.432 47.638 9.576 47.818C8.551 48.032 9.475 45.577 12.431 40.232C14.836 35.885 17.809 29.991 19.038 27.134C20.267 24.277 21.437 22.104 21.638 22.305C21.84 22.506 19.549 28.257 16.548 35.085ZM56.531 31.732C56.805 32.959 58.485 35.655 60.264 37.723C63.114 41.034 63.202 41.295 61 39.907C57.266 37.554 54.977 32.289 55.17 26.5C55.322 21.93 55.366 21.844 55.685 25.5C55.876 27.7 56.257 30.504 56.531 31.732ZM81 53.08C89.122 56.755 93.956 64.747 93.956 74.5C93.956 81.444 91.309 88.25 87.196 91.878C83.629 95.025 77.114 97.979 74 97.862C71.952 97.785 71.862 97.681 73.5 97.284C74.6 97.018 76.4 96.003 77.5 95.03C78.6 94.056 80.85 92.638 82.5 91.879C87.013 89.804 89.403 84.05 89.84 74.209C90.268 64.589 89.215 61.274 84.39 57.037C77.714 51.176 66.067 50.423 59.503 55.43C53.335 60.135 50.603 65.327 50.159 73.192C49.666 81.923 51.699 87.592 57.061 92.436C59.231 94.396 60.591 96 60.084 96C58.249 96 51.117 88.215 49.577 84.53C47.303 79.088 47.515 68.633 50.004 63.493C52.194 58.967 57.522 54.165 62.392 52.326C67.375 50.444 75.941 50.791 81 53.08ZM15.153 60.248C14.941 65.293 15.475 72.08 16.527 77.712C18.137 86.33 18.141 87.191 16.582 91.086C15.666 93.376 15.13 95.464 15.392 95.725C16.194 96.527 18.094 94.91 19.007 92.648C19.764 90.77 19.881 90.908 19.937 93.75C19.996 96.81 19.795 97 16.5 97H13V76.082C13 64.577 13.273 54.452 13.607 53.582C14.946 50.092 15.483 52.406 15.153 60.248ZM38.75 52.689C37.788 52.941 36.212 52.941 35.25 52.689C34.288 52.438 35.075 52.232 37 52.232C38.925 52.232 39.712 52.438 38.75 52.689ZM43 55V58H31.5H20L19.882 66.25C19.74 76.135 18.306 72.473 18.118 61.746L18 54.991L29.386 55.642C40.429 56.272 40.793 56.227 41.454 54.146C42.406 51.145 43 51.473 43 55ZM69.764 56.928C55.024 58.985 49.448 76.054 59.867 87.223C63.165 90.759 64.286 91.299 69.548 91.891C74.809 92.482 75.133 92.639 72.342 93.237C62.95 95.249 52 85.241 52 74.644C52 65.203 61.353 55.848 70.5 56.14L74.5 56.267L69.764 56.928ZM80.759 58.995C85.882 62.118 88.018 66.49 87.844 73.5L87.695 79.5L87.077 73.5C86.326 66.198 82.95 60.646 78 58.571C76.075 57.764 75.175 57.082 76 57.055C76.825 57.029 78.967 57.902 80.759 58.995ZM77.38 60.385C86.513 64.201 88.058 80.207 79.997 87.502C78.244 89.089 76.384 89.5 70.961 89.5C64.817 89.5 63.833 89.214 61.16 86.653C59.424 84.99 57.713 81.919 57.045 79.265C53.582 65.512 64.775 55.119 77.38 60.385ZM84.05 86.278L81.712 88.5L83.606 85.848C84.648 84.389 85.7 83.389 85.944 83.626C86.189 83.862 85.337 85.056 84.05 86.278Z" fill="#517ABE"/>
<path fill-rule="evenodd" clip-rule="evenodd" d="M63.229 1.61699C57.89 3.57199 50.542 11.014 48.392 16.643C44.363 27.193 48.686 40.224 58.375 46.738C63.141 49.943 63.165 49.987 60.701 50.924C57.04 52.316 49.179 60.327 47.477 64.401C46.665 66.345 46 70.88 46 74.479C46 102.146 82.608 109.897 94.069 84.657C96.353 79.625 96.589 70.345 94.555 65.478C92.492 60.539 87.408 54.535 83.516 52.439L80.176 50.64L84.338 47.954C93.577 41.993 97 35.86 97 25.267C97 20.023 96.457 17.453 94.623 14.026C93.316 11.582 91.679 9.39299 90.984 9.16099C90.148 8.88299 89.996 9.20699 90.533 10.12C90.979 10.879 90.417 10.688 89.284 9.69699C86.168 6.96799 77.506 3.99699 72.739 4.02199C67.87 4.04699 61.908 6.50199 57.328 10.369C53.658 13.467 52 19.389 52 29.401C52 34.292 52.504 36.445 54.25 39.008C56.89 42.885 57.28 43.102 66.718 45.931C72.915 47.789 74.54 47.932 78.218 46.943C83.451 45.537 88.775 40.218 92.351 32.827C94.186 29.032 94.937 28.156 94.963 29.782C95.062 35.947 88.387 44.687 81.327 47.637C77.352 49.297 69.079 49.403 63.925 47.86C55.354 45.292 49.044 35.81 49.044 25.5C49.044 11.245 57.73 2.58499 72.084 2.52999C78.933 2.50299 80.177 2.81599 84.921 5.76299C87.811 7.55799 89.988 8.45799 89.758 7.76299C89.528 7.06799 87.191 5.16799 84.564 3.54099C78.762 -0.0540099 69.96 -0.84801 63.229 1.61699ZM22.414 2.77199C21.267 3.72299 16.378 13.5 11.55 24.5C6.722 35.5 2.148 45.497 1.386 46.715C0.624 47.933 0 49.192 0 49.513C0 49.833 2.761 49.961 6.136 49.798L12.271 49.5L19.305 33.22C23.174 24.266 26.666 17.291 27.066 17.72C27.618 18.314 36.966 39.582 40.704 48.75C41.097 49.712 38.214 50 28.189 50C21.025 50 14.452 50.273 13.582 50.607C12.2 51.137 12 54.242 12 75.107V99H17H22V79.5V60H33.5H45V55V50H49.083C51.329 50 53.017 49.634 52.833 49.187C52.65 48.74 47.775 37.726 42 24.712L31.5 1.04999L28 1.04699C26.075 1.04599 23.561 1.82199 22.414 2.77199ZM40 24.672C45.225 36.573 49.65 46.69 49.833 47.155C50.017 47.62 48.405 48 46.251 48H42.336L38.179 38.322C35.893 33 34.232 28.435 34.488 28.178C34.947 27.72 40.077 38.516 41.438 42.805C42.194 45.185 42.791 45.419 44.824 44.13C46.408 43.126 44.443 38.205 34.665 18.686L28.246 5.87199L26.373 8.28999C25.343 9.61899 20.225 19.092 15 29.34C9.775 39.588 4.953 47.979 4.286 47.986C2.936 48.002 2.557 48.963 14.521 22C18.792 12.375 22.784 4.16899 23.393 3.76499C24.002 3.36099 25.85 3.03099 27.5 3.03199C30.448 3.03299 30.665 3.40799 40 24.672ZM73.269 7.65599C72.592 7.92999 71.242 7.94699 70.269 7.69299C69.296 7.43899 69.85 7.21499 71.5 7.19499C73.15 7.17499 73.946 7.38199 73.269 7.65599ZM61.944 11.7C60.179 13.186 58.137 15.773 57.407 17.45C56.2 20.22 56.075 20.284 56.039 18.15C55.999 15.718 61.827 8.99999 63.977 8.99999C64.624 8.99999 63.709 10.215 61.944 11.7ZM78.316 11.152C87.822 16.166 89.722 29.513 82.025 37.21C78.614 40.622 77.718 41 73.052 41C63.183 41 58 35.847 58 26.034C58 19.311 60.124 14.505 64.19 12.026C67.889 9.76999 74.877 9.33799 78.316 11.152ZM86.886 13.399C88.198 14.555 90.112 17.368 91.139 19.652C92.986 23.757 92.982 23.868 90.846 29.451C89.657 32.557 87.068 36.919 85.093 39.144C81.95 42.684 80.874 43.237 76.5 43.559C72.274 43.871 72.042 43.807 75 43.148C79.721 42.096 82.007 40.517 85.156 36.137C90.42 28.813 89.635 19.406 83.199 12.686C80.963 10.352 80.844 9.99399 82.502 10.585C83.601 10.977 85.574 12.243 86.886 13.399ZM16.548 35.085C13.467 42.095 10.432 47.638 9.576 47.818C8.551 48.032 9.475 45.577 12.431 40.232C14.836 35.885 17.809 29.991 19.038 27.134C20.267 24.277 21.437 22.104 21.638 22.305C21.84 22.506 19.549 28.257 16.548 35.085ZM56.531 31.732C56.805 32.959 58.485 35.655 60.264 37.723C63.114 41.034 63.202 41.295 61 39.907C57.266 37.554 54.977 32.289 55.17 26.5C55.322 21.93 55.366 21.844 55.685 25.5C55.876 27.7 56.257 30.504 56.531 31.732ZM81 53.08C92.245 58.168 97.33 73.028 91.924 85C85.667 98.854 65.989 102.558 54.956 91.958C49.924 87.123 48 82.21 48 74.194C48 63.75 53.245 55.78 62.392 52.326C67.375 50.444 75.941 50.791 81 53.08ZM15.147 60.248C14.925 65.455 15.448 71.859 16.565 77.602C18.24 86.212 18.243 86.934 16.626 90.977C15.686 93.327 15.13 95.464 15.392 95.725C16.194 96.527 18.094 94.91 19.007 92.648C19.764 90.77 19.881 90.908 19.937 93.75C19.996 96.81 19.795 97 16.5 97H13V76.082C13 64.577 13.273 54.452 13.607 53.582C14.947 50.09 15.482 52.408 15.147 60.248ZM38.762 52.687C37.806 52.937 36.006 52.946 34.762 52.707C33.518 52.468 34.3 52.263 36.5 52.252C38.7 52.241 39.718 52.437 38.762 52.687ZM43 55V58H31.5H20L19.9 66.25C19.775 76.65 18.245 72.962 18.1 61.909L18 54.317L22.75 55.099C25.363 55.529 30.507 55.908 34.183 55.94C40.016 55.992 40.946 55.746 41.5 54C42.409 51.137 43 51.531 43 55ZM64.742 58.085C63.775 58.648 62.425 58.787 61.742 58.394C61.059 58.001 60.827 58.041 61.227 58.484C61.627 58.926 60.634 60.792 59.019 62.631C52.189 70.41 52.956 80.874 60.91 88.436C63.446 90.848 65.063 91.449 69.957 91.803C75.428 92.199 76.236 91.981 79.818 89.144C81.964 87.444 84.08 86.379 84.52 86.777C84.961 87.175 85.019 86.974 84.651 86.331C84.283 85.687 84.582 84.561 85.315 83.828C86.104 83.039 86.749 79.726 86.894 75.713C87.11 69.76 86.796 68.387 84.321 64.474C82.441 61.504 80.243 59.514 77.73 58.509C73.416 56.783 67.32 56.583 64.742 58.085ZM77.38 60.385C86.513 64.201 88.058 80.207 79.997 87.502C78.244 89.089 76.384 89.5 70.961 89.5C64.817 89.5 63.833 89.214 61.16 86.653C59.424 84.99 57.713 81.919 57.045 79.265C53.582 65.512 64.775 55.119 77.38 60.385Z" fill="#0055AA"/>
<path fill-rule="evenodd" clip-rule="evenodd" d="M63.229 1.61699C57.89 3.57199 50.542 11.014 48.392 16.643C44.363 27.193 48.686 40.224 58.375 46.738C63.141 49.943 63.165 49.987 60.701 50.924C57.04 52.316 49.179 60.327 47.477 64.401C46.665 66.345 46 70.88 46 74.479C46 102.146 82.608 109.897 94.069 84.657C96.353 79.625 96.589 70.345 94.555 65.478C92.492 60.539 87.408 54.535 83.516 52.439L80.176 50.64L84.338 47.954C93.577 41.993 97 35.86 97 25.267C97 20.023 96.457 17.453 94.623 14.026C93.316 11.582 91.679 9.39299 90.984 9.16099C90.148 8.88299 89.996 9.20699 90.533 10.12C90.979 10.879 90.417 10.688 89.284 9.69699C86.168 6.96799 77.506 3.99699 72.739 4.02199C67.87 4.04699 61.908 6.50199 57.328 10.369C53.658 13.467 52 19.389 52 29.401C52 34.292 52.504 36.445 54.25 39.008C56.89 42.885 57.28 43.102 66.718 45.931C72.915 47.789 74.54 47.932 78.218 46.943C83.451 45.537 88.775 40.218 92.351 32.827C94.186 29.032 94.937 28.156 94.963 29.782C95.062 35.947 88.387 44.687 81.327 47.637C77.352 49.297 69.079 49.403 63.925 47.86C55.354 45.292 49.044 35.81 49.044 25.5C49.044 11.245 57.73 2.58499 72.084 2.52999C78.933 2.50299 80.177 2.81599 84.921 5.76299C87.811 7.55799 89.988 8.45799 89.758 7.76299C89.528 7.06799 87.191 5.16799 84.564 3.54099C78.762 -0.0540099 69.96 -0.84801 63.229 1.61699ZM22.414 2.77199C21.267 3.72299 16.378 13.5 11.55 24.5C6.722 35.5 2.148 45.497 1.386 46.715C0.624 47.933 0 49.192 0 49.513C0 49.833 2.761 49.961 6.136 49.798L12.271 49.5L19.305 33.22C23.174 24.266 26.666 17.291 27.066 17.72C27.618 18.314 36.966 39.582 40.704 48.75C41.097 49.712 38.214 50 28.189 50C21.025 50 14.452 50.273 13.582 50.607C12.2 51.137 12 54.242 12 75.107V99H17H22V79.5V60H33.5H45V55V50H49.083C51.329 50 53.017 49.634 52.833 49.187C52.65 48.74 47.775 37.726 42 24.712L31.5 1.04999L28 1.04699C26.075 1.04599 23.561 1.82199 22.414 2.77199ZM40 24.672C45.225 36.573 49.65 46.69 49.833 47.155C50.017 47.62 48.405 48 46.251 48H42.336L38.179 38.322C35.893 33 34.232 28.435 34.488 28.178C34.947 27.72 40.077 38.516 41.438 42.805C42.194 45.185 42.791 45.419 44.824 44.13C46.408 43.126 44.443 38.205 34.665 18.686L28.246 5.87199L26.373 8.28999C25.343 9.61899 20.225 19.092 15 29.34C9.775 39.588 4.953 47.979 4.286 47.986C2.936 48.002 2.557 48.963 14.521 22C18.792 12.375 22.784 4.16899 23.393 3.76499C24.002 3.36099 25.85 3.03099 27.5 3.03199C30.448 3.03299 30.665 3.40799 40 24.672ZM73.269 7.65599C72.592 7.92999 71.242 7.94699 70.269 7.69299C69.296 7.43899 69.85 7.21499 71.5 7.19499C73.15 7.17499 73.946 7.38199 73.269 7.65599ZM61.944 11.7C60.179 13.186 58.137 15.773 57.407 17.45C56.2 20.22 56.075 20.284 56.039 18.15C55.999 15.718 61.827 8.99999 63.977 8.99999C64.624 8.99999 63.709 10.215 61.944 11.7ZM78.316 11.152C87.822 16.166 89.722 29.513 82.025 37.21C78.614 40.622 77.718 41 73.052 41C63.183 41 58 35.847 58 26.034C58 19.311 60.124 14.505 64.19 12.026C67.889 9.76999 74.877 9.33799 78.316 11.152ZM86.886 13.399C88.198 14.555 90.112 17.368 91.139 19.652C92.986 23.757 92.982 23.868 90.846 29.451C89.657 32.557 87.068 36.919 85.093 39.144C81.95 42.684 80.874 43.237 76.5 43.559C72.274 43.871 72.042 43.807 75 43.148C79.721 42.096 82.007 40.517 85.156 36.137C90.42 28.813 89.635 19.406 83.199 12.686C80.963 10.352 80.844 9.99399 82.502 10.585C83.601 10.977 85.574 12.243 86.886 13.399ZM16.548 35.085C13.467 42.095 10.432 47.638 9.576 47.818C8.551 48.032 9.475 45.577 12.431 40.232C14.836 35.885 17.809 29.991 19.038 27.134C20.267 24.277 21.437 22.104 21.638 22.305C21.84 22.506 19.549 28.257 16.548 35.085ZM56.531 31.732C56.805 32.959 58.485 35.655 60.264 37.723C63.114 41.034 63.202 41.295 61 39.907C57.266 37.554 54.977 32.289 55.17 26.5C55.322 21.93 55.366 21.844 55.685 25.5C55.876 27.7 56.257 30.504 56.531 31.732ZM81 53.08C92.245 58.168 97.33 73.028 91.924 85C85.667 98.854 65.989 102.558 54.956 91.958C49.924 87.123 48 82.21 48 74.194C48 63.75 53.245 55.78 62.392 52.326C67.375 50.444 75.941 50.791 81 53.08ZM15.147 60.248C14.925 65.455 15.448 71.859 16.565 77.602C18.24 86.212 18.243 86.934 16.626 90.977C15.686 93.327 15.13 95.464 15.392 95.725C16.194 96.527 18.094 94.91 19.007 92.648C19.764 90.77 19.881 90.908 19.937 93.75C19.996 96.81 19.795 97 16.5 97H13V76.082C13 64.577 13.273 54.452 13.607 53.582C14.947 50.09 15.482 52.408 15.147 60.248ZM38.762 52.687C37.806 52.937 36.006 52.946 34.762 52.707C33.518 52.468 34.3 52.263 36.5 52.252C38.7 52.241 39.718 52.437 38.762 52.687ZM43 55V58H31.5H20L19.9 66.25C19.775 76.65 18.245 72.962 18.1 61.909L18 54.317L22.75 55.099C25.363 55.529 30.507 55.908 34.183 55.94C40.016 55.992 40.946 55.746 41.5 54C42.409 51.137 43 51.531 43 55ZM64.742 58.085C63.775 58.648 62.425 58.787 61.742 58.394C61.059 58.001 60.827 58.041 61.227 58.484C61.627 58.926 60.634 60.792 59.019 62.631C52.189 70.41 52.956 80.874 60.91 88.436C63.446 90.848 65.063 91.449 69.957 91.803C75.428 92.199 76.236 91.981 79.818 89.144C81.964 87.444 84.121 86.379 84.61 86.777C85.1 87.175 85.18 87.105 84.79 86.623C84.399 86.141 84.737 84.476 85.54 82.923C86.343 81.37 87 77.537 87 74.405C87 64.009 80.185 56.949 70.23 57.03C68.178 57.047 65.709 57.521 64.742 58.085ZM77.38 60.385C86.513 64.201 88.058 80.207 79.997 87.502C78.244 89.089 76.384 89.5 70.961 89.5C64.817 89.5 63.833 89.214 61.16 86.653C59.424 84.99 57.713 81.919 57.045 79.265C53.582 65.512 64.775 55.119 77.38 60.385Z" fill="#9ACED1"/>
<path fill-rule="evenodd" clip-rule="evenodd" d="M63.229 1.61699C57.89 3.57199 50.542 11.014 48.392 16.643C44.363 27.193 48.686 40.224 58.375 46.738C63.141 49.943 63.165 49.987 60.701 50.924C57.04 52.316 49.179 60.327 47.477 64.401C46.665 66.345 46 70.88 46 74.479C46 102.146 82.608 109.897 94.069 84.657C96.353 79.625 96.589 70.345 94.555 65.478C92.492 60.539 87.408 54.535 83.516 52.439L80.176 50.64L84.338 47.954C93.577 41.993 97 35.86 97 25.267C97 20.023 96.457 17.453 94.623 14.026C93.316 11.582 91.679 9.39299 90.984 9.16099C90.148 8.88299 89.996 9.20699 90.533 10.12C90.979 10.879 90.417 10.688 89.284 9.69699C86.168 6.96799 77.506 3.99699 72.739 4.02199C67.87 4.04699 61.908 6.50199 57.328 10.369C53.658 13.467 52 19.389 52 29.401C52 34.292 52.504 36.445 54.25 39.008C56.89 42.885 57.28 43.102 66.718 45.931C72.915 47.789 74.54 47.932 78.218 46.943C83.451 45.537 88.775 40.218 92.351 32.827C94.186 29.032 94.937 28.156 94.963 29.782C95.062 35.947 88.387 44.687 81.327 47.637C77.352 49.297 69.079 49.403 63.925 47.86C55.354 45.292 49.044 35.81 49.044 25.5C49.044 11.245 57.73 2.58499 72.084 2.52999C78.933 2.50299 80.177 2.81599 84.921 5.76299C87.811 7.55799 89.988 8.45799 89.758 7.76299C89.528 7.06799 87.191 5.16799 84.564 3.54099C78.762 -0.0540099 69.96 -0.84801 63.229 1.61699ZM22.414 2.77199C21.267 3.72299 16.378 13.5 11.55 24.5C6.722 35.5 2.148 45.497 1.386 46.715C0.624 47.933 0 49.192 0 49.513C0 49.833 2.761 49.961 6.136 49.798L12.271 49.5L19.305 33.22C23.174 24.266 26.666 17.291 27.066 17.72C27.618 18.314 36.966 39.582 40.704 48.75C41.097 49.712 38.214 50 28.189 50C21.025 50 14.452 50.273 13.582 50.607C12.2 51.137 12 54.242 12 75.107V99H17H22V79.5V60H33.5H45V55V50H49.083C51.329 50 53.017 49.634 52.833 49.187C52.65 48.74 47.775 37.726 42 24.712L31.5 1.04999L28 1.04699C26.075 1.04599 23.561 1.82199 22.414 2.77199ZM40 24.672C45.225 36.573 49.65 46.69 49.833 47.155C50.017 47.62 48.405 48 46.251 48H42.336L38.179 38.322C35.893 33 34.232 28.435 34.488 28.178C34.947 27.72 40.077 38.516 41.438 42.805C42.194 45.185 42.791 45.419 44.824 44.13C46.408 43.126 44.443 38.205 34.665 18.686L28.246 5.87199L26.373 8.28999C25.343 9.61899 20.225 19.092 15 29.34C9.775 39.588 4.953 47.979 4.286 47.986C2.936 48.002 2.557 48.963 14.521 22C18.792 12.375 22.784 4.16899 23.393 3.76499C24.002 3.36099 25.85 3.03099 27.5 3.03199C30.448 3.03299 30.665 3.40799 40 24.672ZM73.269 7.65599C72.592 7.92999 71.242 7.94699 70.269 7.69299C69.296 7.43899 69.85 7.21499 71.5 7.19499C73.15 7.17499 73.946 7.38199 73.269 7.65599ZM61.944 11.7C60.179 13.186 58.137 15.773 57.407 17.45C56.2 20.22 56.075 20.284 56.039 18.15C55.999 15.718 61.827 8.99999 63.977 8.99999C64.624 8.99999 63.709 10.215 61.944 11.7ZM78.316 11.152C87.822 16.166 89.722 29.513 82.025 37.21C78.614 40.622 77.718 41 73.052 41C63.183 41 58 35.847 58 26.034C58 19.311 60.124 14.505 64.19 12.026C67.889 9.76999 74.877 9.33799 78.316 11.152ZM86.886 13.399C88.198 14.555 90.112 17.368 91.139 19.652C92.986 23.757 92.982 23.868 90.846 29.451C89.657 32.557 87.068 36.919 85.093 39.144C81.95 42.684 80.874 43.237 76.5 43.559C72.274 43.871 72.042 43.807 75 43.148C79.721 42.096 82.007 40.517 85.156 36.137C90.42 28.813 89.635 19.406 83.199 12.686C80.963 10.352 80.844 9.99399 82.502 10.585C83.601 10.977 85.574 12.243 86.886 13.399ZM16.548 35.085C13.467 42.095 10.432 47.638 9.576 47.818C8.551 48.032 9.475 45.577 12.431 40.232C14.836 35.885 17.809 29.991 19.038 27.134C20.267 24.277 21.437 22.104 21.638 22.305C21.84 22.506 19.549 28.257 16.548 35.085ZM56.531 31.732C56.805 32.959 58.485 35.655 60.264 37.723C63.114 41.034 63.202 41.295 61 39.907C57.266 37.554 54.977 32.289 55.17 26.5C55.322 21.93 55.366 21.844 55.685 25.5C55.876 27.7 56.257 30.504 56.531 31.732ZM32.75 51.926L43 52V55V58H31.403H19.807L20.047 72.75C20.18 80.862 20.223 89.638 20.144 92.25C20 96.984 19.989 97 16.5 97H13L13.015 75.75C13.024 64.063 13.361 53.99 13.765 53.366C14.648 52.003 17.753 51.173 20.5 51.565C21.6 51.723 27.112 51.885 32.75 51.926ZM81 53.08C92.245 58.168 97.33 73.028 91.924 85C85.667 98.854 65.989 102.558 54.956 91.958C49.924 87.123 48 82.21 48 74.194C48 63.75 53.245 55.78 62.392 52.326C67.375 50.444 75.941 50.791 81 53.08ZM64.742 58.085C63.775 58.648 62.425 58.787 61.742 58.394C61.059 58.001 60.827 58.041 61.227 58.484C61.627 58.926 60.634 60.792 59.019 62.631C52.189 70.41 52.956 80.874 60.91 88.436C63.446 90.848 65.063 91.449 69.957 91.803C75.428 92.199 76.236 91.981 79.818 89.144C81.964 87.444 84.121 86.379 84.61 86.777C85.1 87.175 85.18 87.105 84.79 86.623C84.399 86.141 84.737 84.476 85.54 82.923C86.343 81.37 87 77.537 87 74.405C87 64.009 80.185 56.949 70.23 57.03C68.178 57.047 65.709 57.521 64.742 58.085ZM77.38 60.385C86.513 64.201 88.058 80.207 79.997 87.502C78.244 89.089 76.384 89.5 70.961 89.5C64.817 89.5 63.833 89.214 61.16 86.653C59.424 84.99 57.713 81.919 57.045 79.265C53.582 65.512 64.775 55.119 77.38 60.385Z" fill="#F8EE76"/>
<path fill-rule="evenodd" clip-rule="evenodd" d="M63.229 1.66901C57.9 3.55501 50.562 10.96 48.392 16.643C44.363 27.193 48.686 40.224 58.375 46.738C63.141 49.943 63.165 49.987 60.701 50.924C57.04 52.316 49.179 60.327 47.477 64.401C46.665 66.345 46 70.88 46 74.479C46 102.146 82.608 109.897 94.069 84.657C96.353 79.625 96.589 70.345 94.555 65.478C92.492 60.539 87.408 54.535 83.516 52.439L80.176 50.64L84.338 47.954C93.577 41.993 97 35.86 97 25.267C97 17.445 94.906 12.526 89.291 7.15501C82.181 0.35401 72.627 -1.65599 63.229 1.66901ZM22.414 2.77201C21.267 3.72301 16.378 13.5 11.55 24.5C6.722 35.5 2.148 45.497 1.386 46.715C0.624 47.933 0 49.192 0 49.513C0 49.833 2.761 49.961 6.136 49.798L12.271 49.5L19.305 33.22C23.174 24.266 26.666 17.291 27.066 17.72C27.618 18.314 36.966 39.582 40.704 48.75C41.097 49.712 38.214 50 28.189 50C21.025 50 14.452 50.273 13.582 50.607C12.2 51.137 12 54.242 12 75.107V99H17H22V79.5V60H33.5H45V55V50H49.083C51.329 50 53.017 49.634 52.833 49.187C52.65 48.74 47.775 37.726 42 24.712L31.5 1.05001L28 1.04701C26.075 1.04601 23.561 1.82201 22.414 2.77201ZM83.116 4.79201C86.351 6.48201 89.534 9.14601 91.179 11.542C94.087 15.776 96.486 24.411 95.288 26.334C94.889 26.975 94.686 28.465 94.839 29.644C95.56 35.232 88.493 44.642 81.327 47.637C77.352 49.297 69.079 49.403 63.925 47.86C55.354 45.292 49.044 35.81 49.044 25.5C49.044 7.18401 66.91 -3.67399 83.116 4.79201ZM40 24.672C45.225 36.573 49.65 46.69 49.833 47.155C50.017 47.62 48.405 48 46.251 48H42.336L38.179 38.322C35.893 33 34.232 28.435 34.488 28.178C34.947 27.72 40.077 38.516 41.438 42.805C42.194 45.185 42.791 45.419 44.824 44.13C46.408 43.126 44.443 38.205 34.665 18.686L28.246 5.87201L26.373 8.29001C25.343 9.61901 20.225 19.092 15 29.34C9.775 39.588 4.953 47.979 4.286 47.986C2.936 48.002 2.557 48.963 14.521 22C18.792 12.375 22.784 4.16901 23.393 3.76501C24.002 3.36101 25.85 3.03101 27.5 3.03201C30.448 3.03301 30.665 3.40801 40 24.672ZM61.765 11.919C57.331 16.232 56 19.509 56 26.115C56 31.214 57.656 35.64 60.423 37.936C61.278 38.646 61.686 39.738 61.329 40.363C60.972 40.988 61.013 41.201 61.421 40.835C61.829 40.469 63.687 40.807 65.549 41.585C70.022 43.454 76.547 43.382 79.846 41.427C83.871 39.042 87.73 32.981 88.502 27.834C89.248 22.862 86.938 15.831 83.674 13.137C82.765 12.387 82.314 11.262 82.671 10.637C83.028 10.012 82.987 9.79901 82.579 10.165C82.171 10.531 80.264 10.172 78.341 9.36901C76.418 8.56601 72.73 8.00501 70.146 8.12301C66.259 8.30001 64.811 8.95601 61.765 11.919ZM78.316 11.152C87.822 16.166 89.722 29.513 82.025 37.21C78.614 40.622 77.718 41 73.052 41C63.183 41 58 35.847 58 26.034C58 19.311 60.124 14.505 64.19 12.026C67.889 9.77001 74.877 9.33801 78.316 11.152ZM16.548 35.085C13.467 42.095 10.432 47.638 9.576 47.818C8.551 48.032 9.475 45.577 12.431 40.232C14.836 35.885 17.809 29.991 19.038 27.134C20.267 24.277 21.437 22.104 21.638 22.305C21.84 22.506 19.549 28.257 16.548 35.085ZM32.75 51.926L43 52V55V58H31.403H19.807L20.047 72.75C20.18 80.862 20.223 89.638 20.144 92.25C20 96.984 19.989 97 16.5 97H13L13.015 75.75C13.024 64.063 13.361 53.99 13.765 53.366C14.648 52.003 17.753 51.173 20.5 51.565C21.6 51.723 27.112 51.885 32.75 51.926ZM81 53.08C92.245 58.168 97.33 73.028 91.924 85C85.667 98.854 65.989 102.558 54.956 91.958C49.924 87.123 48 82.21 48 74.194C48 63.75 53.245 55.78 62.392 52.326C67.375 50.444 75.941 50.791 81 53.08ZM64.742 58.085C63.775 58.648 62.425 58.787 61.742 58.394C61.059 58.001 60.827 58.041 61.227 58.484C61.627 58.926 60.634 60.792 59.019 62.631C52.189 70.41 52.956 80.874 60.91 88.436C63.446 90.848 65.063 91.449 69.957 91.803C75.428 92.199 76.236 91.981 79.818 89.144C81.964 87.444 84.121 86.379 84.61 86.777C85.1 87.175 85.18 87.105 84.79 86.623C84.399 86.141 84.737 84.476 85.54 82.923C86.343 81.37 87 77.537 87 74.405C87 64.009 80.185 56.949 70.23 57.03C68.178 57.047 65.709 57.521 64.742 58.085ZM77.38 60.385C86.513 64.201 88.058 80.207 79.997 87.502C78.244 89.089 76.384 89.5 70.961 89.5C64.817 89.5 63.833 89.214 61.16 86.653C59.424 84.99 57.713 81.919 57.045 79.265C53.582 65.512 64.775 55.119 77.38 60.385Z" fill="#FD0000"/>
<path fill-rule="evenodd" clip-rule="evenodd" d="M63.229 1.66901C57.9 3.55501 50.562 10.96 48.392 16.643C44.363 27.193 48.686 40.224 58.375 46.738C63.141 49.943 63.165 49.987 60.701 50.924C57.04 52.316 49.179 60.327 47.477 64.401C46.665 66.345 46 70.88 46 74.479C46 102.146 82.608 109.897 94.069 84.657C96.353 79.625 96.589 70.345 94.555 65.478C92.492 60.539 87.408 54.535 83.516 52.439L80.176 50.64L84.338 47.954C93.577 41.993 97 35.86 97 25.267C97 17.445 94.906 12.526 89.291 7.15501C82.181 0.35401 72.627 -1.65599 63.229 1.66901ZM22.414 2.77201C21.267 3.72301 16.378 13.5 11.55 24.5C6.722 35.5 2.148 45.497 1.386 46.715C0.624 47.933 0 49.192 0 49.513C0 49.833 2.761 49.961 6.136 49.798L12.271 49.5L19.305 33.22C23.174 24.266 26.666 17.291 27.066 17.72C27.618 18.314 36.966 39.582 40.704 48.75C41.097 49.712 38.214 50 28.189 50C21.025 50 14.452 50.273 13.582 50.607C12.2 51.137 12 54.242 12 75.107V99H17H22V79.5V60H33.5H45V55V50H49.083C51.329 50 53.017 49.634 52.833 49.187C52.65 48.74 47.775 37.726 42 24.712L31.5 1.05001L28 1.04701C26.075 1.04601 23.561 1.82201 22.414 2.77201ZM84.618 5.56701C87.589 7.40401 90.612 10.437 92.474 13.449C95.122 17.734 95.479 19.179 95.334 25.005C95.129 33.202 93.047 38.464 88.258 42.887C83.461 47.317 79.231 49 72.898 49C65.656 49 60.713 47.279 56.476 43.283C51.441 38.534 49.044 32.798 49.044 25.5C49.044 10.871 58.906 1.56301 73.644 2.28201C78.38 2.51301 80.895 3.26601 84.618 5.56701ZM40 24.672C45.225 36.573 49.65 46.69 49.833 47.155C50.017 47.62 48.405 48 46.251 48H42.336L38.179 38.322C35.893 33 34.232 28.435 34.488 28.178C34.947 27.72 40.077 38.516 41.438 42.805C42.194 45.185 42.791 45.419 44.824 44.13C46.408 43.126 44.443 38.205 34.665 18.686L28.246 5.87201L26.373 8.29001C25.343 9.61901 20.225 19.092 15 29.34C9.775 39.588 4.953 47.979 4.286 47.986C2.936 48.002 2.557 48.963 14.521 22C18.792 12.375 22.784 4.16901 23.393 3.76501C24.002 3.36101 25.85 3.03101 27.5 3.03201C30.448 3.03301 30.665 3.40801 40 24.672ZM61.765 11.919C57.331 16.232 56 19.509 56 26.115C56 31.214 57.656 35.64 60.423 37.936C61.278 38.646 61.724 39.637 61.415 40.138C61.105 40.639 61.222 40.957 61.676 40.843C62.129 40.729 64.3 41.165 66.5 41.812C75.206 44.373 80.389 42.799 85.155 36.149C88.919 30.898 89.711 24.392 87.259 18.863C86.195 16.463 84.582 13.887 83.674 13.137C82.765 12.387 82.314 11.262 82.671 10.637C83.028 10.012 82.987 9.79901 82.579 10.165C82.171 10.531 80.264 10.172 78.341 9.36901C76.418 8.56601 72.73 8.00501 70.146 8.12301C66.259 8.30001 64.811 8.95601 61.765 11.919ZM78.316 11.152C87.822 16.166 89.722 29.513 82.025 37.21C78.614 40.622 77.718 41 73.052 41C63.183 41 58 35.847 58 26.034C58 19.311 60.124 14.505 64.19 12.026C67.889 9.77001 74.877 9.33801 78.316 11.152ZM16.548 35.085C13.467 42.095 10.432 47.638 9.576 47.818C8.551 48.032 9.475 45.577 12.431 40.232C14.836 35.885 17.809 29.991 19.038 27.134C20.267 24.277 21.437 22.104 21.638 22.305C21.84 22.506 19.549 28.257 16.548 35.085ZM33.75 51.989L43 52V55V58H31.352H19.703L20.226 71.75C20.514 79.313 20.525 88.088 20.251 91.25L19.752 97H16.376H13L13.015 75.75C13.024 64.063 13.361 54.005 13.765 53.4C14.946 51.632 17.252 51.034 21 51.522C22.925 51.773 28.663 51.983 33.75 51.989ZM81 53.08C92.245 58.168 97.33 73.028 91.924 85C85.667 98.854 65.989 102.558 54.956 91.958C49.924 87.123 48 82.21 48 74.194C48 63.75 53.245 55.78 62.392 52.326C67.375 50.444 75.941 50.791 81 53.08ZM64.742 58.085C63.775 58.648 62.425 58.787 61.742 58.394C61.059 58.001 60.827 58.041 61.227 58.484C61.627 58.926 60.634 60.792 59.019 62.631C52.189 70.41 52.956 80.874 60.91 88.436C63.446 90.848 65.063 91.449 69.957 91.803C75.428 92.199 76.236 91.981 79.818 89.144C81.964 87.444 84.121 86.379 84.61 86.777C85.1 87.175 85.18 87.105 84.79 86.623C84.399 86.141 84.737 84.476 85.54 82.923C86.343 81.37 87 77.537 87 74.405C87 64.009 80.185 56.949 70.23 57.03C68.178 57.047 65.709 57.521 64.742 58.085ZM77.38 60.385C86.513 64.201 88.058 80.207 79.997 87.502C78.244 89.089 76.384 89.5 70.961 89.5C64.817 89.5 63.833 89.214 61.16 86.653C59.424 84.99 57.713 81.919 57.045 79.265C53.582 65.512 64.775 55.119 77.38 60.385Z" fill="#FF0101"/>
<path fill-rule="evenodd" clip-rule="evenodd" d="M63.229 1.66901C57.9 3.55501 50.562 10.96 48.392 16.643C44.363 27.193 48.686 40.224 58.375 46.738C63.141 49.943 63.165 49.987 60.701 50.924C57.04 52.316 49.179 60.327 47.477 64.401C46.665 66.345 46 70.88 46 74.479C46 102.146 82.608 109.897 94.069 84.657C96.353 79.625 96.589 70.345 94.555 65.478C92.492 60.539 87.408 54.535 83.516 52.439L80.176 50.64L84.338 47.954C93.577 41.993 97 35.86 97 25.267C97 17.445 94.906 12.526 89.291 7.15501C82.181 0.35401 72.627 -1.65599 63.229 1.66901ZM22.414 2.77201C21.267 3.72301 16.378 13.5 11.55 24.5C6.722 35.5 2.148 45.497 1.386 46.715C0.624 47.933 0 49.192 0 49.513C0 49.833 2.761 49.961 6.136 49.798L12.271 49.5L19.305 33.22C23.174 24.266 26.666 17.291 27.066 17.72C27.618 18.314 36.966 39.582 40.704 48.75C41.097 49.712 38.214 50 28.189 50C21.025 50 14.452 50.273 13.582 50.607C12.2 51.137 12 54.242 12 75.107V99H17H22V79.5V60H33.5H45V55V50H49.083C51.329 50 53.017 49.634 52.833 49.187C52.65 48.74 47.775 37.726 42 24.712L31.5 1.05001L28 1.04701C26.075 1.04601 23.561 1.82201 22.414 2.77201ZM84.618 5.56701C87.598 7.40901 90.606 10.432 92.474 13.459C95.071 17.67 95.478 19.251 95.346 24.627C95.137 33.099 93.425 37.736 88.825 42.291C83.955 47.112 79.473 49 72.898 49C65.656 49 60.713 47.279 56.476 43.283C51.441 38.534 49.044 32.798 49.044 25.5C49.044 10.871 58.906 1.56301 73.644 2.28201C78.38 2.51301 80.895 3.26601 84.618 5.56701ZM40 24.672C45.225 36.573 49.65 46.69 49.833 47.155C50.017 47.62 48.396 48 46.232 48H42.297L38.557 39.25C36.5 34.438 34.583 29.932 34.297 29.239C33.955 28.409 34.329 28.189 35.389 28.596C36.275 28.936 37 30.066 37 31.107C37 32.148 37.477 33 38.059 33C38.641 33 38.797 32.48 38.405 31.845C37.952 31.114 38.131 30.963 38.894 31.435C39.825 32.01 39.812 32.522 38.836 33.697C37.808 34.936 37.864 35.427 39.137 36.358C40.831 37.597 41 38.013 41 40.943C41 42.347 41.554 42.778 43 42.5C44.1 42.288 45 42.614 45 43.224C45 43.834 45.286 44.048 45.635 43.698C46.556 42.777 39.185 28.285 37.458 27.622C36.656 27.315 36 26.544 36 25.909C36 25.125 36.532 25.195 37.661 26.128C39.181 27.384 39.203 27.309 37.92 25.25C37.149 24.012 36.151 23 35.7 23C35.25 23 35.207 23.526 35.605 24.17C36.103 24.975 35.765 25.124 34.523 24.647C32.996 24.061 32.913 24.19 33.981 25.477C34.676 26.315 34.812 27 34.283 27C32.636 27 30.813 21.931 31.962 20.546C32.523 19.87 32.687 19.02 32.325 18.658C31.963 18.296 32.207 18 32.869 18C33.79 18 33.779 17.475 32.821 15.75C32.133 14.512 31.555 13.162 31.535 12.75C31.495 11.905 30.06 11.711 29.891 12.529C29.831 12.819 30.102 14.057 30.494 15.279C31.759 19.226 31.838 20 30.979 20C30.515 20 29.833 18.988 29.463 17.75C29.094 16.512 28.134 14.457 27.329 13.183C26.148 11.312 25.588 11.097 24.421 12.066C23.398 12.915 23.278 13.63 24.01 14.512C24.736 15.387 24.611 16.617 23.592 18.63C22.793 20.208 19.657 27.35 16.623 34.5C13.341 42.235 10.478 47.631 9.554 47.823C8.626 48.016 7.953 47.412 7.884 46.323C7.778 44.65 7.73 44.644 7.311 46.25C7.059 47.212 6.002 48 4.962 48C3.115 48 3.114 47.901 4.914 43.75C14.458 21.734 22.483 4.36901 23.393 3.76501C24.002 3.36101 25.85 3.03101 27.5 3.03201C30.448 3.03301 30.665 3.40801 40 24.672ZM61.758 11.926C57.331 16.232 56 19.511 56 26.115C56 36.233 63.112 43 73.745 43C83.765 43 91.708 29.42 87.534 19.426C84.204 11.454 78.29 7.68601 69.799 8.12501C66.31 8.30601 64.694 9.07001 61.758 11.926ZM78.316 11.152C87.822 16.166 89.722 29.513 82.025 37.21C78.614 40.622 77.718 41 73.052 41C63.183 41 58 35.847 58 26.034C58 19.311 60.124 14.505 64.19 12.026C67.889 9.77001 74.877 9.33801 78.316 11.152ZM22 16C22 16.55 22.45 17 23 17C23.55 17 24 16.55 24 16C24 15.45 23.55 15 23 15C22.45 15 22 15.45 22 16ZM33.26 20.558C31.866 22.06 32.973 23.252 34.745 22.158C35.377 21.767 35.581 20.946 35.197 20.334C34.702 19.544 34.141 19.609 33.26 20.558ZM18.5 23C18.84 23.55 18.672 24 18.126 24C16.977 24 15.485 27.869 15.871 29.85C16.015 30.593 15.759 30.969 15.3 30.686C14.842 30.402 13.997 31.168 13.421 32.387C12.556 34.22 12.679 34.626 14.131 34.735C15.351 34.827 15.699 34.38 15.273 33.27C14.833 32.123 15.034 31.903 15.985 32.49C16.866 33.035 17.07 32.923 16.595 32.155C16.2 31.515 16.444 31 17.141 31C18.071 31 18.107 30.707 17.278 29.878C16.661 29.261 16.409 28.098 16.717 27.294C17.176 26.099 17.432 26.075 18.124 27.166C18.73 28.123 18.974 27.864 18.985 26.25C18.993 25.012 19.477 24 20.059 24C20.641 24 20.84 23.55 20.5 23C20.16 22.45 19.432 22 18.882 22C18.332 22 18.16 22.45 18.5 23ZM11 38C11 39.867 11.267 40.133 12.2 39.2C13.133 38.267 13.133 37.733 12.2 36.8C11.267 35.867 11 36.133 11 38ZM8.67 41.417C8.371 42.197 8.722 43.063 9.45 43.342C10.354 43.689 10.614 43.239 10.27 41.925C9.669 39.627 9.391 39.539 8.67 41.417ZM33.75 51.989L43 52V55V58H31.352H19.703L20.226 71.75C20.514 79.313 20.525 88.088 20.251 91.25L19.752 97H16.376H13L13.015 75.75C13.024 64.063 13.361 54.005 13.765 53.4C14.946 51.632 17.252 51.034 21 51.522C22.925 51.773 28.663 51.983 33.75 51.989ZM81 53.08C92.245 58.168 97.33 73.028 91.924 85C85.667 98.854 65.989 102.558 54.956 91.958C49.924 87.123 48 82.21 48 74.194C48 63.75 53.245 55.78 62.392 52.326C67.375 50.444 75.941 50.791 81 53.08ZM64.742 58.085C63.775 58.648 62.425 58.787 61.742 58.394C61.059 58.001 60.827 58.041 61.227 58.484C61.627 58.926 60.634 60.792 59.019 62.631C52.189 70.41 52.956 80.874 60.91 88.436C63.446 90.848 65.063 91.449 69.957 91.803C75.428 92.199 76.236 91.981 79.818 89.144C81.964 87.444 84.121 86.379 84.61 86.777C85.1 87.175 85.18 87.105 84.79 86.623C84.399 86.141 84.737 84.476 85.54 82.923C86.343 81.37 87 77.537 87 74.405C87 64.009 80.185 56.949 70.23 57.03C68.178 57.047 65.709 57.521 64.742 58.085ZM77.38 60.385C86.513 64.201 88.058 80.207 79.997 87.502C78.244 89.089 76.384 89.5 70.961 89.5C64.817 89.5 63.833 89.214 61.16 86.653C59.424 84.99 57.713 81.919 57.045 79.265C53.582 65.512 64.775 55.119 77.38 60.385Z" fill="#FF0000"/>
<path fill-rule="evenodd" clip-rule="evenodd" d="M63.229 1.66901C57.9 3.55501 50.562 10.96 48.392 16.643C44.363 27.193 48.686 40.224 58.375 46.738C63.141 49.943 63.165 49.987 60.701 50.924C57.04 52.316 49.179 60.327 47.477 64.401C46.665 66.345 46 70.88 46 74.479C46 102.146 82.608 109.897 94.069 84.657C96.353 79.625 96.589 70.345 94.555 65.478C92.492 60.539 87.408 54.535 83.516 52.439L80.176 50.64L84.338 47.954C93.577 41.993 97 35.86 97 25.267C97 17.445 94.906 12.526 89.291 7.15501C82.181 0.35401 72.627 -1.65599 63.229 1.66901ZM22.414 2.77201C21.267 3.72301 16.378 13.5 11.55 24.5C6.722 35.5 2.148 45.497 1.386 46.715C0.624 47.933 0 49.192 0 49.513C0 49.833 2.761 49.961 6.136 49.798L12.271 49.5L19.305 33.22C23.174 24.266 26.666 17.291 27.066 17.72C27.618 18.314 36.966 39.582 40.704 48.75C41.097 49.712 38.214 50 28.189 50C21.025 50 14.452 50.273 13.582 50.607C12.2 51.137 12 54.242 12 75.107V99H17H22V79.5V60H33.5H45V55V50H49.083C51.329 50 53.017 49.634 52.833 49.187C52.65 48.74 47.775 37.726 42 24.712L31.5 1.05001L28 1.04701C26.075 1.04601 23.561 1.82201 22.414 2.77201ZM84.618 5.56701C87.598 7.40901 90.606 10.432 92.474 13.459C95.071 17.67 95.478 19.251 95.346 24.627C95.137 33.099 93.425 37.736 88.825 42.291C83.955 47.112 79.473 49 72.898 49C65.656 49 60.713 47.279 56.476 43.283C51.441 38.534 49.044 32.798 49.044 25.5C49.044 10.871 58.906 1.56301 73.644 2.28201C78.38 2.51301 80.895 3.26601 84.618 5.56701ZM40 24.672C45.225 36.573 49.65 46.69 49.833 47.155C50.017 47.62 48.404 48 46.251 48H42.334L35.058 31C31.056 21.65 27.427 14 26.993 14C26.131 14 19 28.315 19 30.047C19 30.636 18.48 30.797 17.845 30.405C17.165 29.984 16.961 30.128 17.349 30.755C18.11 31.986 17.106 35.183 16.145 34.59C15.79 34.371 15.428 35.161 15.341 36.346C15.253 37.531 14.22 40.638 13.044 43.25C11.021 47.745 10.696 48 6.989 48H3.071L4.914 43.75C14.458 21.734 22.483 4.36901 23.393 3.76501C24.002 3.36101 25.85 3.03101 27.5 3.03201C30.448 3.03301 30.665 3.40801 40 24.672ZM61.758 11.926C57.331 16.232 56 19.511 56 26.115C56 36.233 63.112 43 73.745 43C83.765 43 91.708 29.42 87.534 19.426C84.204 11.454 78.29 7.68601 69.799 8.12501C66.31 8.30601 64.694 9.07001 61.758 11.926ZM78.316 11.152C87.822 16.166 89.722 29.513 82.025 37.21C78.614 40.622 77.718 41 73.052 41C63.183 41 58 35.847 58 26.034C58 19.311 60.124 14.505 64.19 12.026C67.889 9.77001 74.877 9.33801 78.316 11.152ZM33.75 51.989L43 52V55V58H31.352H19.703L20.226 71.75C20.514 79.313 20.525 88.088 20.251 91.25L19.752 97H16.376H13L13.015 75.75C13.024 64.063 13.361 54.005 13.765 53.4C14.946 51.632 17.252 51.034 21 51.522C22.925 51.773 28.663 51.983 33.75 51.989ZM81 53.08C92.245 58.168 97.33 73.028 91.924 85C85.667 98.854 65.989 102.558 54.956 91.958C49.924 87.123 48 82.21 48 74.194C48 63.75 53.245 55.78 62.392 52.326C67.375 50.444 75.941 50.791 81 53.08ZM64.742 58.085C63.775 58.648 62.425 58.787 61.742 58.394C61.059 58.001 60.827 58.041 61.227 58.484C61.627 58.926 60.634 60.792 59.019 62.631C52.189 70.41 52.956 80.874 60.91 88.436C63.446 90.848 65.063 91.449 69.957 91.803C75.428 92.199 76.236 91.981 79.818 89.144C81.964 87.444 84.121 86.379 84.61 86.777C85.1 87.175 85.18 87.105 84.79 86.623C84.399 86.141 84.737 84.476 85.54 82.923C86.343 81.37 87 77.537 87 74.405C87 64.009 80.185 56.949 70.23 57.03C68.178 57.047 65.709 57.521 64.742 58.085ZM77.38 60.385C86.513 64.201 88.058 80.207 79.997 87.502C78.244 89.089 76.384 89.5 70.961 89.5C64.817 89.5 63.833 89.214 61.16 86.653C59.424 84.99 57.713 81.919 57.045 79.265C53.582 65.512 64.775 55.119 77.38 60.385Z" fill="black"/>
</svg>
