<svg width="40" height="40" viewBox="0 0 40 40" fill="none" xmlns="http://www.w3.org/2000/svg">
<g id="Group 1">
<circle id="Ellipse 4" cx="20" cy="20" r="20" fill="#F57C00"/>
<path id="Vector" d="M26.3769 13.619C25.5476 12.7856 24.5599 12.1248 23.4712 11.6751C22.3826 11.2254 21.2149 10.996 20.0362 11.0001C15.0975 11.0001 11.0724 15.005 11.0724 19.919C11.0724 21.494 11.4884 23.024 12.2663 24.374L11 29L15.7487 27.758C17.0603 28.469 18.5347 28.847 20.0362 28.847C24.9749 28.847 29 24.842 29 19.928C29 17.543 28.0683 15.302 26.3769 13.619ZM20.0362 27.335C18.6975 27.335 17.3859 26.975 16.2372 26.3L15.9658 26.138L13.1437 26.876L13.8945 24.14L13.7136 23.861C12.9698 22.6793 12.5749 21.3133 12.5739 19.919C12.5739 15.833 15.9206 12.503 20.0271 12.503C22.0171 12.503 23.8894 13.277 25.2915 14.681C25.9857 15.3686 26.5358 16.1864 26.91 17.0871C27.2842 17.9878 27.475 18.9534 27.4714 19.928C27.4894 24.014 24.1427 27.335 20.0362 27.335ZM24.1246 21.791C23.8985 21.683 22.795 21.143 22.596 21.062C22.3879 20.99 22.2432 20.954 22.0894 21.17C21.9357 21.395 21.5106 21.899 21.3839 22.043C21.2573 22.196 21.1216 22.214 20.8955 22.097C20.6693 21.989 19.9457 21.746 19.0955 20.99C18.4261 20.396 17.9829 19.667 17.8472 19.442C17.7206 19.217 17.8291 19.1 17.9467 18.983C18.0462 18.884 18.1729 18.722 18.2814 18.596C18.3899 18.47 18.4352 18.371 18.5075 18.227C18.5799 18.074 18.5437 17.948 18.4894 17.84C18.4352 17.732 17.9829 16.634 17.802 16.184C17.6211 15.752 17.4312 15.806 17.2955 15.797H16.8613C16.7075 15.797 16.4724 15.851 16.2643 16.076C16.0653 16.301 15.4864 16.841 15.4864 17.939C15.4864 19.037 16.2915 20.099 16.4 20.243C16.5085 20.396 17.9829 22.646 20.2261 23.609C20.7598 23.843 21.1759 23.978 21.5015 24.077C22.0352 24.248 22.5236 24.221 22.9126 24.167C23.3467 24.104 24.2422 23.627 24.4231 23.105C24.6131 22.583 24.6131 22.142 24.5497 22.043C24.4864 21.944 24.3508 21.899 24.1246 21.791Z" fill="white"/>
</g>
</svg>
